# xmcd
#
# Track frame offsets:
# 150
# 25020
# 45187
# 67495
# 94235
# 106815
# 121935
# 138522
# 155735
#
# Disc length: 2367 seconds
#
# Revision: 1
# Processed by: cddbd v1.5.1PL0 Copyright (c) Steve Scherf et al.
# Submitted via: Easy CD Ripper v2.10
#
DISCID=76093d09
DTITLE=Elvin Bishop - Juke Joint Jump
DYEAR=1975
DGENRE=Blues
TTITLE0=Juke Joint Jump
TTITLE1=Calling All Cows
TTITLE2=Rollin' Home
TTITLE3=Wide River
TTITLE4=Sure Feels Good
TTITLE5=Arkansas Line
TTITLE6=Hold On
TTITLE7=Crawlin' Kingsnake
TTITLE8=Do Nobody Wron
EXTD=
EXTT0=
EXTT1=
EXTT2=
EXTT3=
EXTT4=
EXTT5=
EXTT6=
EXTT7=
EXTT8=
PLAYORDER=
